<svg width="140" height="218" viewBox="0 0 140 218" fill="none" xmlns="http://www.w3.org/2000/svg">
<path d="M0.172715 217.878C0.0777227 217.783 0 216.163 0 214.279V210.853L1.89423 208.83C4.85072 205.674 6.3314 202.596 6.9355 198.352C7.13307 196.964 7.19472 184.844 7.14128 157.892L7.06501 119.413L6.47853 117.965C5.67732 115.987 4.09382 113.6 2.57694 112.086L1.31326 110.824L2.17958 110.164C4.14654 108.666 6.41927 104.821 6.93122 102.126C7.09816 101.247 7.19346 91.8044 7.19346 76.1429V51.5405L10.0282 54.8848C16.2038 62.1703 25.9164 72.2168 33.5958 79.2626L35.9673 81.4386V118.447V155.455H69.2371H102.507L102.511 118.964L102.514 82.4737L105.672 79.5894C112.66 73.2059 124.295 61.1112 129.685 54.6282L132.18 51.6276L132.308 76.6704L132.437 101.713L133.022 103.25C133.879 105.497 135.416 107.949 136.936 109.491L138.27 110.844L136.95 112.179C135.296 113.852 133.75 116.198 133.008 118.159L132.437 119.67L132.363 157.764C132.312 183.939 132.375 196.522 132.566 197.98C133.144 202.409 134.565 205.31 137.875 208.826L139.974 211.055L139.998 214.261C140.015 216.685 139.935 217.538 139.669 217.758C139.411 217.972 133.44 218.033 117.251 217.984L95.1849 217.919L95.1135 214.391L95.042 210.864L96.6984 209.234C99.4214 206.555 101.078 203.588 102.004 199.735C102.458 197.841 102.503 196.663 102.505 186.687L102.507 175.721H69.2373H35.9675V186.838C35.9675 197.096 36.0072 198.113 36.4799 199.985C37.3393 203.389 38.7402 205.875 41.3737 208.668L43.6897 211.124L43.6181 214.522L43.5464 217.919L21.946 217.984C10.0658 218.021 0.267913 217.973 0.172921 217.878H0.172715ZM45.9578 143.719C50.5459 139.144 53.2714 134.724 54.6612 129.603L55.338 127.109L55.4324 114.337C55.5374 100.143 55.6017 100.805 53.7565 97.0956C52.8131 95.1992 50.8442 92.3821 49.7399 91.3486L49.0812 90.7321L49.9381 89.785C51.829 87.6951 53.7067 84.5057 54.8825 81.3867L55.4925 79.7685V48.6066V17.4447H49.7391C44.7461 17.4447 43.7698 17.5113 42.3529 17.9485C38.5408 19.1249 35.644 21.9775 34.117 26.0587C33.5739 27.5103 33.5447 28.0124 33.4568 37.4302C33.378 45.8736 33.4254 47.5546 33.788 49.1822C34.3271 51.602 36.0068 54.9228 38.1321 57.7708C40.9948 61.6068 41.0433 61.7628 41.2186 67.6816C41.3194 71.0834 41.2836 71.5961 40.9545 71.47C40.3638 71.2437 29.7447 63.1689 26.6433 60.5878C17.8785 53.2934 10.7611 45.9359 4.04597 37.2285L2.58647 35.3359L3.87926 33.8936C5.32622 32.2794 7.23634 28.6292 7.85571 26.2948C9.04897 21.7973 8.40536 16.5475 6.09453 11.9294C5.30757 10.3566 3.57803 7.95618 2.6004 7.07977C2.09851 6.62986 2.05527 6.32961 2.05527 3.29555V0L69.8152 0.0646107L137.575 0.129222L137.647 3.11795L137.719 6.10668L136.284 7.7354C133.819 10.5341 132.235 13.9496 131.424 18.217C130.904 20.9534 130.923 22.181 131.532 25.1404C132.18 28.2963 133.883 31.784 135.757 33.7938L137.128 35.2643L135.955 36.7865C131.657 42.3628 124.242 50.4853 119.279 55.0517C113.283 60.5686 107.593 65.1151 99.3433 70.98L95.185 73.9362L95.1126 69.6114C95.0336 64.8885 95.3155 62.3019 96.0702 60.8248C96.3389 60.2989 97.2362 58.9521 98.0643 57.8319C101.132 53.6825 102.338 51.1002 102.796 47.706C103.134 45.1978 102.938 29.1783 102.549 27.4456C101.911 24.6116 101.195 23.2686 99.3199 21.3928C95.9132 17.9845 94.1103 17.4447 86.1333 17.4447H80.401L80.4711 49.1896L80.5412 80.9346L81.6292 83.1959C82.7708 85.5684 84.8693 88.7838 85.9183 89.7679L86.5363 90.3475L85.3163 91.8592C83.9225 93.5864 81.7586 97.6184 80.9568 99.9826C80.4357 101.519 80.4127 102.057 80.4127 112.687C80.4127 118.793 80.5318 124.736 80.6774 125.895C81.5032 132.472 84.3459 137.826 90.0714 143.591L93.1927 146.733H68.0639H42.935L45.9578 143.719Z" fill="black"/>
</svg>
