<svg width="799" height="239" viewBox="0 0 799 239" fill="none" xmlns="http://www.w3.org/2000/svg">
<rect width="799" height="239" fill="white"/>
<path d="M64.0765 167.946C64.0344 167.903 64 167.183 64 166.344V164.82L64.8389 163.92C66.1482 162.515 66.8039 161.146 67.0714 159.258C67.1589 158.64 67.1862 153.247 67.1626 141.255L67.1288 124.133L66.8691 123.489C66.5142 122.609 65.813 121.547 65.1412 120.873L64.5816 120.312L64.9652 120.018C65.8363 119.351 66.8428 117.641 67.0695 116.441C67.1435 116.05 67.1857 111.849 67.1857 104.88V93.9332L68.4411 95.4212C71.176 98.6629 75.4773 103.133 78.8781 106.268L79.9284 107.236V123.703V140.17H94.6622H109.396L109.398 123.934L109.399 107.697L110.798 106.414C113.892 103.573 119.045 98.1917 121.432 95.3071L122.537 93.9719L122.594 105.115L122.651 116.258L122.91 116.941C123.289 117.942 123.97 119.033 124.643 119.718L125.234 120.321L124.649 120.914C123.917 121.659 123.232 122.703 122.904 123.575L122.651 124.248L122.618 141.198C122.595 152.844 122.623 158.443 122.708 159.092C122.964 161.063 123.593 162.354 125.059 163.918L125.989 164.91L125.999 166.336C126.007 167.415 125.971 167.794 125.853 167.892C125.739 167.988 123.095 168.014 115.925 167.993L106.153 167.964L106.122 166.394L106.09 164.825L106.824 164.1C108.029 162.908 108.763 161.587 109.173 159.873C109.374 159.03 109.394 158.506 109.395 154.067L109.396 149.188H94.6623H79.9285V154.134C79.9285 158.699 79.946 159.151 80.1554 159.984C80.536 161.499 81.1564 162.605 82.3226 163.848L83.3483 164.941L83.3166 166.452L83.2848 167.964L73.719 167.993C68.4577 168.009 64.1186 167.988 64.0766 167.946H64.0765ZM84.3528 134.948C86.3846 132.913 87.5916 130.946 88.2071 128.667L88.5068 127.558L88.5486 121.875C88.5951 115.559 88.6236 115.853 87.8065 114.203C87.3886 113.359 86.5167 112.106 86.0277 111.646L85.7359 111.372L86.1154 110.95C86.9528 110.02 87.7844 108.601 88.3051 107.213L88.5752 106.493V92.6277V78.7621H86.0273C83.8161 78.7621 83.3838 78.7917 82.7563 78.9863C81.0681 79.5097 79.7852 80.779 79.109 82.5949C78.8684 83.2408 78.8555 83.4642 78.8166 87.6547C78.7817 91.4116 78.8027 92.1596 78.9632 92.8838C79.202 93.9605 79.9459 95.4381 80.8871 96.7053C82.1548 98.4122 82.1763 98.4816 82.254 101.115C82.2986 102.629 82.2828 102.857 82.137 102.801C81.8754 102.7 77.1727 99.1073 75.7992 97.9588C71.9176 94.7131 68.7656 91.4394 65.7918 87.565L65.1454 86.7229L65.718 86.0811C66.3588 85.3629 67.2047 83.7387 67.479 82.7C68.0074 80.6988 67.7224 78.3629 66.699 76.308C66.3505 75.6082 65.5846 74.5401 65.1516 74.1502C64.9293 73.95 64.9102 73.8164 64.9102 72.4664V71L94.9181 71.0287L124.926 71.0575L124.958 72.3873L124.99 73.7172L124.355 74.4419C123.262 75.6872 122.561 77.207 122.202 79.1057C121.972 80.3233 121.98 80.8695 122.25 82.1863C122.537 83.5906 123.291 85.1424 124.121 86.0367L124.728 86.691L124.209 87.3683C122.305 89.8495 119.021 93.4637 116.824 95.4955C114.168 97.9503 111.648 99.9732 107.995 102.583L106.153 103.898L106.121 101.974C106.086 99.8724 106.211 98.7215 106.545 98.0642C106.664 97.8302 107.062 97.231 107.428 96.7325C108.787 94.8863 109.321 93.7373 109.524 92.227C109.674 91.111 109.587 83.983 109.414 83.212C109.132 81.951 108.815 81.3535 107.985 80.5188C106.476 79.0023 105.677 78.7621 102.145 78.7621H99.6062L99.6372 92.8871L99.6682 107.012L100.15 108.018C100.656 109.074 101.585 110.505 102.05 110.943L102.323 111.201L101.783 111.873C101.166 112.642 100.207 114.436 99.8523 115.488C99.6215 116.171 99.6113 116.411 99.6113 121.141C99.6113 123.857 99.6641 126.502 99.7286 127.018C100.094 129.944 101.353 132.326 103.889 134.891L105.271 136.29H94.1426H83.0141L84.3528 134.948Z" fill="black"/>
<path d="M702.068 122.602C702.068 119.345 702.54 116.49 703.484 114.035C704.475 111.581 705.773 109.552 707.378 107.947C708.983 106.295 710.824 105.068 712.9 104.266C714.977 103.416 717.101 102.991 719.272 102.991C724.369 102.991 728.334 104.572 731.166 107.735C734.045 110.897 735.484 115.617 735.484 121.894C735.484 122.366 735.461 122.909 735.414 123.522C735.414 124.089 735.39 124.608 735.343 125.08H710.918C711.154 128.053 712.192 130.366 714.033 132.018C715.921 133.623 718.635 134.425 722.175 134.425C724.251 134.425 726.139 134.236 727.838 133.859C729.585 133.481 730.953 133.08 731.945 132.655L733.077 139.664C732.605 139.9 731.945 140.159 731.095 140.443C730.293 140.679 729.349 140.891 728.263 141.08C727.225 141.316 726.092 141.505 724.865 141.646C723.638 141.788 722.387 141.859 721.113 141.859C717.856 141.859 715.024 141.387 712.617 140.443C710.21 139.452 708.228 138.106 706.67 136.407C705.113 134.661 703.956 132.631 703.201 130.319C702.446 127.959 702.068 125.387 702.068 122.602ZM726.918 118.779C726.918 117.599 726.753 116.49 726.422 115.451C726.092 114.366 725.596 113.446 724.936 112.69C724.322 111.888 723.543 111.274 722.599 110.85C721.703 110.378 720.617 110.142 719.343 110.142C718.021 110.142 716.865 110.401 715.874 110.92C714.883 111.392 714.033 112.03 713.325 112.832C712.664 113.634 712.145 114.555 711.768 115.593C711.39 116.631 711.13 117.693 710.989 118.779H726.918Z" fill="black"/>
<path d="M674.727 94.1416L683.293 92.7257V103.912H696.461V111.062H683.293V126.142C683.293 129.115 683.765 131.239 684.709 132.513C685.653 133.788 687.258 134.425 689.523 134.425C691.081 134.425 692.449 134.26 693.629 133.929C694.856 133.599 695.824 133.292 696.532 133.009L697.948 139.805C696.957 140.23 695.659 140.655 694.054 141.08C692.449 141.552 690.561 141.788 688.39 141.788C685.747 141.788 683.529 141.434 681.735 140.726C679.989 140.018 678.597 139.003 677.558 137.682C676.52 136.313 675.789 134.685 675.364 132.797C674.939 130.861 674.727 128.667 674.727 126.213V94.1416Z" fill="black"/>
<path d="M633.736 105.115C635.388 104.643 637.536 104.195 640.179 103.77C642.822 103.345 645.748 103.133 648.958 103.133C651.978 103.133 654.503 103.558 656.533 104.407C658.562 105.21 660.167 106.366 661.347 107.876C662.574 109.339 663.424 111.133 663.896 113.257C664.415 115.333 664.674 117.623 664.674 120.124V140.938H656.108V121.469C656.108 119.487 655.966 117.811 655.683 116.443C655.447 115.027 655.023 113.894 654.409 113.044C653.843 112.148 653.04 111.51 652.002 111.133C651.011 110.708 649.784 110.496 648.32 110.496C647.235 110.496 646.102 110.566 644.922 110.708C643.742 110.85 642.869 110.968 642.303 111.062V140.938H633.736V105.115Z" fill="black"/>
<path d="M591.24 122.602C591.24 119.345 591.712 116.49 592.656 114.035C593.647 111.581 594.945 109.552 596.55 107.947C598.155 106.295 599.995 105.068 602.072 104.266C604.149 103.416 606.273 102.991 608.444 102.991C613.541 102.991 617.506 104.572 620.338 107.735C623.217 110.897 624.656 115.617 624.656 121.894C624.656 122.366 624.633 122.909 624.585 123.522C624.585 124.089 624.562 124.608 624.515 125.08H600.09C600.326 128.053 601.364 130.366 603.205 132.018C605.093 133.623 607.807 134.425 611.347 134.425C613.423 134.425 615.311 134.236 617.01 133.859C618.757 133.481 620.125 133.08 621.116 132.655L622.249 139.664C621.777 139.9 621.116 140.159 620.267 140.443C619.465 140.679 618.521 140.891 617.435 141.08C616.397 141.316 615.264 141.505 614.037 141.646C612.81 141.788 611.559 141.859 610.285 141.859C607.028 141.859 604.196 141.387 601.789 140.443C599.382 139.452 597.4 138.106 595.842 136.407C594.285 134.661 593.128 132.631 592.373 130.319C591.618 127.959 591.24 125.387 591.24 122.602ZM616.09 118.779C616.09 117.599 615.925 116.49 615.594 115.451C615.264 114.366 614.768 113.446 614.108 112.69C613.494 111.888 612.715 111.274 611.771 110.85C610.875 110.378 609.789 110.142 608.515 110.142C607.193 110.142 606.037 110.401 605.046 110.92C604.054 111.392 603.205 112.03 602.497 112.832C601.836 113.634 601.317 114.555 600.939 115.593C600.562 116.631 600.302 117.693 600.161 118.779H616.09Z" fill="black"/>
<path d="M558.537 121.469C558.537 125.103 559.315 127.77 560.873 129.469C562.478 131.121 564.531 131.947 567.032 131.947C568.401 131.947 569.675 131.758 570.855 131.381C572.082 131.003 573.074 130.555 573.829 130.036V110.85C573.215 110.708 572.46 110.59 571.563 110.496C570.666 110.354 569.534 110.283 568.165 110.283C565.05 110.283 562.666 111.322 561.014 113.398C559.363 115.428 558.537 118.118 558.537 121.469ZM582.395 137.186C582.395 143.086 580.885 147.404 577.864 150.142C574.891 152.879 570.312 154.248 564.13 154.248C561.864 154.248 559.646 154.059 557.475 153.682C555.351 153.304 553.416 152.808 551.669 152.195L553.227 144.903C554.69 145.516 556.342 146.012 558.183 146.39C560.071 146.767 562.1 146.956 564.271 146.956C567.717 146.956 570.171 146.248 571.634 144.832C573.097 143.416 573.829 141.316 573.829 138.531V137.115C572.979 137.54 571.846 137.965 570.43 138.39C569.062 138.814 567.481 139.027 565.687 139.027C563.327 139.027 561.156 138.649 559.174 137.894C557.239 137.139 555.563 136.03 554.147 134.567C552.778 133.103 551.693 131.286 550.891 129.115C550.135 126.897 549.758 124.348 549.758 121.469C549.758 118.779 550.159 116.301 550.961 114.035C551.811 111.77 553.014 109.835 554.572 108.23C556.177 106.625 558.112 105.375 560.377 104.478C562.643 103.581 565.215 103.133 568.094 103.133C570.879 103.133 573.522 103.345 576.023 103.77C578.525 104.195 580.649 104.643 582.395 105.115V137.186Z" fill="black"/>
<path d="M540.88 140.938H532.314V103.912H540.88V140.938ZM541.801 93.0797C541.801 94.6844 541.281 95.9587 540.243 96.9027C539.205 97.8466 537.978 98.3186 536.562 98.3186C535.099 98.3186 533.848 97.8466 532.809 96.9027C531.771 95.9587 531.252 94.6844 531.252 93.0797C531.252 91.4277 531.771 90.1298 532.809 89.1858C533.848 88.2419 535.099 87.7699 536.562 87.7699C537.978 87.7699 539.205 88.2419 540.243 89.1858C541.281 90.1298 541.801 91.4277 541.801 93.0797Z" fill="black"/>
<path d="M524.111 141.646C521.562 141.599 519.438 141.316 517.739 140.797C516.087 140.277 514.765 139.546 513.774 138.602C512.783 137.611 512.075 136.407 511.65 134.991C511.273 133.528 511.084 131.876 511.084 130.036V87.4159L519.65 86V128.407C519.65 129.446 519.721 130.319 519.863 131.027C520.052 131.735 520.358 132.348 520.783 132.867C521.208 133.339 521.774 133.717 522.482 134C523.237 134.236 524.181 134.425 525.314 134.567L524.111 141.646Z" fill="black"/>
<path d="M468.729 122.602C468.729 119.345 469.201 116.49 470.144 114.035C471.136 111.581 472.434 109.552 474.038 107.947C475.643 106.295 477.484 105.068 479.56 104.266C481.637 103.416 483.761 102.991 485.932 102.991C491.029 102.991 494.994 104.572 497.826 107.735C500.705 110.897 502.145 115.617 502.145 121.894C502.145 122.366 502.121 122.909 502.074 123.522C502.074 124.089 502.05 124.608 502.003 125.08H477.578C477.814 128.053 478.852 130.366 480.693 132.018C482.581 133.623 485.295 134.425 488.835 134.425C490.911 134.425 492.799 134.236 494.499 133.859C496.245 133.481 497.614 133.08 498.605 132.655L499.737 139.664C499.265 139.9 498.605 140.159 497.755 140.443C496.953 140.679 496.009 140.891 494.923 141.08C493.885 141.316 492.752 141.505 491.525 141.646C490.298 141.788 489.047 141.859 487.773 141.859C484.516 141.859 481.684 141.387 479.277 140.443C476.87 139.452 474.888 138.106 473.33 136.407C471.773 134.661 470.616 132.631 469.861 130.319C469.106 127.959 468.729 125.387 468.729 122.602ZM493.578 118.779C493.578 117.599 493.413 116.49 493.083 115.451C492.752 114.366 492.257 113.446 491.596 112.69C490.982 111.888 490.204 111.274 489.26 110.85C488.363 110.378 487.277 110.142 486.003 110.142C484.681 110.142 483.525 110.401 482.534 110.92C481.543 111.392 480.693 112.03 479.985 112.832C479.324 113.634 478.805 114.555 478.428 115.593C478.05 116.631 477.79 117.693 477.649 118.779H493.578Z" fill="black"/>
<path d="M441.389 94.1416L449.955 92.7257V103.912H463.123V111.062H449.955V126.142C449.955 129.115 450.427 131.239 451.371 132.513C452.315 133.788 453.92 134.425 456.185 134.425C457.743 134.425 459.111 134.26 460.291 133.929C461.519 133.599 462.486 133.292 463.194 133.009L464.61 139.805C463.619 140.23 462.321 140.655 460.716 141.08C459.111 141.552 457.224 141.788 455.052 141.788C452.409 141.788 450.191 141.434 448.398 140.726C446.651 140.018 445.259 139.003 444.221 137.682C443.182 136.313 442.451 134.685 442.026 132.797C441.601 130.861 441.389 128.667 441.389 126.213V94.1416Z" fill="black"/>
<path d="M400.398 105.115C402.05 104.643 404.198 104.195 406.841 103.77C409.484 103.345 412.41 103.133 415.62 103.133C418.64 103.133 421.165 103.558 423.195 104.407C425.224 105.21 426.829 106.366 428.009 107.876C429.236 109.339 430.086 111.133 430.558 113.257C431.077 115.333 431.337 117.623 431.337 120.124V140.938H422.77V121.469C422.77 119.487 422.629 117.811 422.345 116.443C422.109 115.027 421.685 113.894 421.071 113.044C420.505 112.148 419.702 111.51 418.664 111.133C417.673 110.708 416.446 110.496 414.983 110.496C413.897 110.496 412.764 110.566 411.584 110.708C410.404 110.85 409.531 110.968 408.965 111.062V140.938H400.398V105.115Z" fill="black"/>
<path d="M380.152 91.8761H389.073V140.938H380.152V91.8761Z" fill="black"/>
<path d="M355.07 141.646C352.521 141.599 350.397 141.316 348.698 140.797C347.046 140.277 345.724 139.546 344.733 138.602C343.742 137.611 343.034 136.407 342.609 134.991C342.232 133.528 342.043 131.876 342.043 130.036V87.4159L350.609 86V128.407C350.609 129.446 350.68 130.319 350.822 131.027C351.011 131.735 351.317 132.348 351.742 132.867C352.167 133.339 352.733 133.717 353.441 134C354.196 134.236 355.14 134.425 356.273 134.567L355.07 141.646Z" fill="black"/>
<path d="M299.688 122.602C299.688 119.345 300.159 116.49 301.103 114.035C302.095 111.581 303.393 109.552 304.997 107.947C306.602 106.295 308.443 105.068 310.519 104.266C312.596 103.416 314.72 102.991 316.891 102.991C321.988 102.991 325.953 104.572 328.785 107.735C331.664 110.897 333.104 115.617 333.104 121.894C333.104 122.366 333.08 122.909 333.033 123.522C333.033 124.089 333.009 124.608 332.962 125.08H308.537C308.773 128.053 309.811 130.366 311.652 132.018C313.54 133.623 316.254 134.425 319.794 134.425C321.87 134.425 323.758 134.236 325.457 133.859C327.204 133.481 328.573 133.08 329.564 132.655L330.696 139.664C330.224 139.9 329.564 140.159 328.714 140.443C327.912 140.679 326.968 140.891 325.882 141.08C324.844 141.316 323.711 141.505 322.484 141.646C321.257 141.788 320.006 141.859 318.732 141.859C315.475 141.859 312.643 141.387 310.236 140.443C307.829 139.452 305.847 138.106 304.289 136.407C302.732 134.661 301.575 132.631 300.82 130.319C300.065 127.959 299.688 125.387 299.688 122.602ZM324.537 118.779C324.537 117.599 324.372 116.49 324.042 115.451C323.711 114.366 323.216 113.446 322.555 112.69C321.941 111.888 321.162 111.274 320.219 110.85C319.322 110.378 318.236 110.142 316.962 110.142C315.64 110.142 314.484 110.401 313.493 110.92C312.502 111.392 311.652 112.03 310.944 112.832C310.283 113.634 309.764 114.555 309.387 115.593C309.009 116.631 308.749 117.693 308.608 118.779H324.537Z" fill="black"/>
<path d="M272.348 94.1416L280.914 92.7257V103.912H294.082V111.062H280.914V126.142C280.914 129.115 281.386 131.239 282.33 132.513C283.274 133.788 284.879 134.425 287.144 134.425C288.702 134.425 290.07 134.26 291.25 133.929C292.478 133.599 293.445 133.292 294.153 133.009L295.569 139.805C294.578 140.23 293.28 140.655 291.675 141.08C290.07 141.552 288.183 141.788 286.011 141.788C283.368 141.788 281.15 141.434 279.357 140.726C277.61 140.018 276.218 139.003 275.18 137.682C274.141 136.313 273.41 134.685 272.985 132.797C272.56 130.861 272.348 128.667 272.348 126.213V94.1416Z" fill="black"/>
<path d="M263.948 122.39C263.948 125.316 263.523 127.982 262.674 130.39C261.824 132.797 260.621 134.85 259.063 136.549C257.506 138.248 255.618 139.569 253.399 140.513C251.228 141.457 248.821 141.929 246.178 141.929C243.535 141.929 241.128 141.457 238.957 140.513C236.786 139.569 234.921 138.248 233.364 136.549C231.806 134.85 230.579 132.797 229.683 130.39C228.833 127.982 228.408 125.316 228.408 122.39C228.408 119.463 228.833 116.82 229.683 114.46C230.579 112.053 231.806 110 233.364 108.301C234.969 106.602 236.857 105.304 239.028 104.407C241.199 103.463 243.582 102.991 246.178 102.991C248.774 102.991 251.158 103.463 253.329 104.407C255.547 105.304 257.435 106.602 258.992 108.301C260.55 110 261.753 112.053 262.603 114.46C263.5 116.82 263.948 119.463 263.948 122.39ZM255.169 122.39C255.169 118.708 254.367 115.805 252.762 113.682C251.205 111.51 249.01 110.425 246.178 110.425C243.346 110.425 241.128 111.51 239.523 113.682C237.966 115.805 237.187 118.708 237.187 122.39C237.187 126.118 237.966 129.068 239.523 131.239C241.128 133.41 243.346 134.496 246.178 134.496C249.01 134.496 251.205 133.41 252.762 131.239C254.367 129.068 255.169 126.118 255.169 122.39Z" fill="black"/>
<path d="M210.23 91.8761H219.151V140.938H210.23V119.204H188.92V140.938H180V91.8761H188.92V111.487H210.23V91.8761Z" fill="black"/>
</svg>
